<svg width="30" height="28" viewBox="0 0 30 28" fill="none" xmlns="http://www.w3.org/2000/svg">
<g filter="url(#filter0_d_303_1342)">
<path d="M23 8H20V4H4V17H6C6 18.66 7.34 20 9 20C10.66 20 12 18.66 12 17H18C18 18.66 19.34 20 21 20C22.66 20 24 18.66 24 17H26V12L23 8ZM9 18C8.45 18 8 17.55 8 17C8 16.45 8.45 16 9 16C9.55 16 10 16.45 10 17C10 17.55 9.55 18 9 18ZM22.5 9.5L24.46 12H20V9.5H22.5ZM21 18C20.45 18 20 17.55 20 17C20 16.45 20.45 16 21 16C21.55 16 22 16.45 22 17C22 17.55 21.55 18 21 18Z" fill="black"/>
</g>
<defs>
<filter id="filter0_d_303_1342" x="-1" y="0" width="32" height="32" filterUnits="userSpaceOnUse" color-interpolation-filters="sRGB">
<feFlood flood-opacity="0" result="BackgroundImageFix"/>
<feColorMatrix in="SourceAlpha" type="matrix" values="0 0 0 0 0 0 0 0 0 0 0 0 0 0 0 0 0 0 127 0" result="hardAlpha"/>
<feOffset dy="4"/>
<feGaussianBlur stdDeviation="2"/>
<feComposite in2="hardAlpha" operator="out"/>
<feColorMatrix type="matrix" values="0 0 0 0 0 0 0 0 0 0 0 0 0 0 0 0 0 0 0.25 0"/>
<feBlend mode="normal" in2="BackgroundImageFix" result="effect1_dropShadow_303_1342"/>
<feBlend mode="normal" in="SourceGraphic" in2="effect1_dropShadow_303_1342" result="shape"/>
</filter>
</defs>
</svg>
