<svg width="47" height="47" viewBox="0 0 47 47" fill="none" xmlns="http://www.w3.org/2000/svg">
<path d="M9.79167 41.125C8.71459 41.125 7.79221 40.7412 7.02454 39.9735C6.25688 39.2058 5.8737 38.2841 5.875 37.2083V9.79167C5.875 8.71459 6.25884 7.79221 7.0265 7.02454C7.79417 6.25688 8.71589 5.8737 9.79167 5.875H37.2083C38.2854 5.875 39.2078 6.25884 39.9755 7.0265C40.7431 7.79417 41.1263 8.71589 41.125 9.79167V27.074C40.5375 26.7149 39.9174 26.4212 39.2646 26.1927C38.6118 25.9642 37.9264 25.7847 37.2083 25.6542V9.79167H9.79167V37.2083H23.5C23.5 37.8938 23.549 38.5629 23.6469 39.2156C23.7448 39.8684 23.908 40.5049 24.1365 41.125H9.79167ZM33.2917 45.0417V39.1667H27.4167V35.25H33.2917V29.375H37.2083V35.25H43.0833V39.1667H37.2083V45.0417H33.2917ZM15.6667 33.2917C16.2215 33.2917 16.687 33.1037 17.063 32.7277C17.439 32.3517 17.6263 31.8869 17.625 31.3333C17.625 30.7785 17.437 30.313 17.061 29.937C16.685 29.561 16.2202 29.3737 15.6667 29.375C15.1118 29.375 14.6464 29.563 14.2704 29.939C13.8944 30.315 13.707 30.7798 13.7083 31.3333C13.7083 31.8882 13.8963 32.3536 14.2723 32.7296C14.6483 33.1056 15.1131 33.293 15.6667 33.2917ZM15.6667 25.4583C16.2215 25.4583 16.687 25.2703 17.063 24.8943C17.439 24.5183 17.6263 24.0536 17.625 23.5C17.625 22.9451 17.437 22.4797 17.061 22.1037C16.685 21.7277 16.2202 21.5404 15.6667 21.5417C15.1118 21.5417 14.6464 21.7297 14.2704 22.1057C13.8944 22.4817 13.707 22.9464 13.7083 23.5C13.7083 24.0549 13.8963 24.5203 14.2723 24.8963C14.6483 25.2723 15.1131 25.4596 15.6667 25.4583ZM15.6667 17.625C16.2215 17.625 16.687 17.437 17.063 17.061C17.439 16.685 17.6263 16.2202 17.625 15.6667C17.625 15.1118 17.437 14.6464 17.061 14.2704C16.685 13.8944 16.2202 13.707 15.6667 13.7083C15.1118 13.7083 14.6464 13.8963 14.2704 14.2723C13.8944 14.6483 13.707 15.1131 13.7083 15.6667C13.7083 16.2215 13.8963 16.687 14.2723 17.063C14.6483 17.439 15.1131 17.6263 15.6667 17.625ZM21.5417 25.4583H33.2917V21.5417H21.5417V25.4583ZM21.5417 17.625H33.2917V13.7083H21.5417V17.625ZM21.5417 33.2917H24.1854C24.4465 32.541 24.7729 31.8392 25.1646 31.1865C25.5563 30.5337 26.0132 29.9299 26.5354 29.375H21.5417V33.2917Z" fill="#522E93"/>
</svg>
