<svg width="32" height="32" viewBox="0 0 32 32" fill="none" xmlns="http://www.w3.org/2000/svg">
<path d="M16.0625 32C14.5905 32 13.1794 31.8118 11.8291 31.4355C10.4788 31.0592 9.20605 30.528 8.01074 29.8418C6.81543 29.1556 5.74186 28.3255 4.79004 27.3516C3.83822 26.3776 3.00814 25.2985 2.2998 24.1143C1.59147 22.93 1.05469 21.6628 0.689453 20.3125C0.324219 18.9622 0.136068 17.5456 0.125 16.0625C0.125 14.5905 0.31315 13.1794 0.689453 11.8291C1.06576 10.4788 1.59701 9.20605 2.2832 8.01074C2.9694 6.81543 3.79948 5.74186 4.77344 4.79004C5.7474 3.83822 6.8265 3.00814 8.01074 2.2998C9.19499 1.59147 10.4622 1.05469 11.8125 0.689453C13.1628 0.324219 14.5794 0.136068 16.0625 0.125C17.5345 0.125 18.9456 0.31315 20.2959 0.689453C21.6462 1.06576 22.9189 1.59701 24.1143 2.2832C25.3096 2.9694 26.3831 3.79948 27.335 4.77344C28.2868 5.7474 29.1169 6.8265 29.8252 8.01074C30.5335 9.19499 31.0703 10.4622 31.4355 11.8125C31.8008 13.1628 31.9889 14.5794 32 16.0625C32 17.5345 31.8118 18.9456 31.4355 20.2959C31.0592 21.6462 30.528 22.9189 29.8418 24.1143C29.1556 25.3096 28.3255 26.3831 27.3516 27.335C26.3776 28.2868 25.2985 29.1169 24.1143 29.8252C22.93 30.5335 21.6628 31.0703 20.3125 31.4355C18.9622 31.8008 17.5456 31.9889 16.0625 32ZM16.0625 2.25C14.7897 2.25 13.5667 2.41602 12.3936 2.74805C11.2204 3.08008 10.1247 3.54492 9.10645 4.14258C8.08822 4.74023 7.15299 5.45963 6.30078 6.30078C5.44857 7.14193 4.72917 8.07162 4.14258 9.08984C3.55599 10.1081 3.09115 11.2093 2.74805 12.3936C2.40495 13.5778 2.23893 14.8008 2.25 16.0625C2.25 17.3353 2.41602 18.5583 2.74805 19.7314C3.08008 20.9046 3.54492 22.0003 4.14258 23.0186C4.74023 24.0368 5.45963 24.972 6.30078 25.8242C7.14193 26.6764 8.07162 27.3958 9.08984 27.9824C10.1081 28.569 11.2093 29.0339 12.3936 29.377C13.5778 29.7201 14.8008 29.8861 16.0625 29.875C17.3353 29.875 18.5583 29.709 19.7314 29.377C20.9046 29.0449 22.0003 28.5801 23.0186 27.9824C24.0368 27.3848 24.972 26.6654 25.8242 25.8242C26.6764 24.9831 27.3958 24.0534 27.9824 23.0352C28.569 22.0169 29.0339 20.9157 29.377 19.7314C29.7201 18.5472 29.8861 17.3242 29.875 16.0625C29.875 14.7897 29.709 13.5667 29.377 12.3936C29.0449 11.2204 28.5801 10.1247 27.9824 9.10645C27.3848 8.08822 26.6654 7.15299 25.8242 6.30078C24.9831 5.44857 24.0534 4.72917 23.0352 4.14258C22.0169 3.55599 20.9157 3.09115 19.7314 2.74805C18.5472 2.40495 17.3242 2.23893 16.0625 2.25ZM19.9307 17.125L8.625 17.125V15L19.9307 15L15.3154 10.4512L16.8096 8.92383L24.0146 16.0625L16.8096 23.2012L15.3154 21.6738L19.9307 17.125Z" fill="white"/>
</svg>
