<svg width="32" height="32" viewBox="0 0 32 32" fill="none" xmlns="http://www.w3.org/2000/svg">
<path d="M15.9375 0C17.4095 0 18.8206 0.188151 20.1709 0.564453C21.5212 0.940755 22.7939 1.47201 23.9893 2.1582C25.1846 2.8444 26.2581 3.67448 27.21 4.64844C28.1618 5.6224 28.9919 6.7015 29.7002 7.88574C30.4085 9.06999 30.9453 10.3372 31.3105 11.6875C31.6758 13.0378 31.8639 14.4544 31.875 15.9375C31.875 17.4095 31.6868 18.8206 31.3105 20.1709C30.9342 21.5212 30.403 22.7939 29.7168 23.9893C29.0306 25.1846 28.2005 26.2581 27.2266 27.21C26.2526 28.1618 25.1735 28.9919 23.9893 29.7002C22.805 30.4085 21.5378 30.9453 20.1875 31.3105C18.8372 31.6758 17.4206 31.8639 15.9375 31.875C14.4655 31.875 13.0544 31.6868 11.7041 31.3105C10.3538 30.9342 9.08105 30.403 7.88574 29.7168C6.69043 29.0306 5.61686 28.2005 4.66504 27.2266C3.71322 26.2526 2.88314 25.1735 2.1748 23.9893C1.46647 22.805 0.929688 21.5378 0.564453 20.1875C0.199219 18.8372 0.0110677 17.4206 0 15.9375C0 14.4655 0.188151 13.0544 0.564453 11.7041C0.940755 10.3538 1.47201 9.08105 2.1582 7.88574C2.8444 6.69043 3.67448 5.61686 4.64844 4.66504C5.6224 3.71322 6.7015 2.88314 7.88574 2.1748C9.06999 1.46647 10.3372 0.929688 11.6875 0.564453C13.0378 0.199219 14.4544 0.0110677 15.9375 0ZM15.9375 29.75C17.2103 29.75 18.4333 29.584 19.6064 29.252C20.7796 28.9199 21.8753 28.4551 22.8936 27.8574C23.9118 27.2598 24.847 26.5404 25.6992 25.6992C26.5514 24.8581 27.2708 23.9284 27.8574 22.9102C28.444 21.8919 28.9089 20.7907 29.252 19.6064C29.5951 18.4222 29.7611 17.1992 29.75 15.9375C29.75 14.6647 29.584 13.4417 29.252 12.2686C28.9199 11.0954 28.4551 9.99967 27.8574 8.98145C27.2598 7.96322 26.5404 7.02799 25.6992 6.17578C24.8581 5.32357 23.9284 4.60417 22.9102 4.01758C21.8919 3.43099 20.7907 2.96615 19.6064 2.62305C18.4222 2.27995 17.1992 2.11393 15.9375 2.125C14.6647 2.125 13.4417 2.29102 12.2686 2.62305C11.0954 2.95508 9.99967 3.41992 8.98145 4.01758C7.96322 4.61523 7.02799 5.33464 6.17578 6.17578C5.32357 7.01693 4.60417 7.94661 4.01758 8.96484C3.43099 9.98307 2.96615 11.0843 2.62305 12.2686C2.27995 13.4528 2.11393 14.6758 2.125 15.9375C2.125 17.2103 2.29102 18.4333 2.62305 19.6064C2.95508 20.7796 3.41992 21.8753 4.01758 22.8936C4.61523 23.9118 5.33464 24.847 6.17578 25.6992C7.01693 26.5514 7.94661 27.2708 8.96484 27.8574C9.98307 28.444 11.0843 28.9089 12.2686 29.252C13.4528 29.5951 14.6758 29.7611 15.9375 29.75ZM12.0693 14.875H23.375V17H12.0693L16.6846 21.5488L15.1904 23.0762L7.98535 15.9375L15.1904 8.79883L16.6846 10.3262L12.0693 14.875Z" fill="white"/>
</svg>
